{
	"asset":{
		"generator":"Khronos glTF Blender I/O v4.0.44",
		"version":"2.0"
	},
	"scene":0,
	"scenes":[
		{
			"name":"Scene",
			"nodes":[
				0
			]
		}
	],
	"nodes":[
		{
			"mesh":0,
			"name":"Cube",
			"translation":[
				0,
				18.926280975341797,
				0
			]
		}
	],
	"meshes":[
		{
			"name":"Cube",
			"primitives":[
				{
					"attributes":{
						"POSITION":0,
						"NORMAL":1,
						"TEXCOORD_0":2
					},
					"indices":3
				}
			]
		}
	],
	"accessors":[
		{
			"bufferView":0,
			"componentType":5126,
			"count":1239,
			"max":[
				3.3921217918395996,
				6.740943908691406,
				10.912980079650879
			],
			"min":[
				-2.8226349353790283,
				-18.642606735229492,
				-10.912981033325195
			],
			"type":"VEC3"
		},
		{
			"bufferView":1,
			"componentType":5126,
			"count":1239,
			"type":"VEC3"
		},
		{
			"bufferView":2,
			"componentType":5126,
			"count":1239,
			"type":"VEC2"
		},
		{
			"bufferView":3,
			"componentType":5123,
			"count":6000,
			"type":"SCALAR"
		}
	],
	"bufferViews":[
		{
			"buffer":0,
			"byteLength":14868,
			"byteOffset":0,
			"target":34962
		},
		{
			"buffer":0,
			"byteLength":14868,
			"byteOffset":14868,
			"target":34962
		},
		{
			"buffer":0,
			"byteLength":9912,
			"byteOffset":29736,
			"target":34962
		},
		{
			"buffer":0,
			"byteLength":12000,
			"byteOffset":39648,
			"target":34963
		}
	],
	"buffers":[
		{
			"byteLength":51648,
			"uri":"model.bin"
		}
	]
}
